<?xml version="1.0"?>
<svg width="512" height="512" xmlns="http://www.w3.org/2000/svg" xmlns:svg="http://www.w3.org/2000/svg" enable-background="new 0 0 512 512" version="1.1" xml:space="preserve">
 <g class="layer">
  <title>Layer 1</title>
  <g id="Video">
   <g id="svg_1">
    <g id="svg_2">
     <path d="m398.25,512l-284.5,0c-62.56,0 -113.75,-51.19 -113.75,-113.75l0,-284.5c0,-62.56 51.19,-113.75 113.75,-113.75l284.5,0c62.56,0 113.75,51.19 113.75,113.75l0,284.5c0,62.56 -51.19,113.75 -113.75,113.75z" fill="#ff5722" id="svg_3"/>
    </g>
   </g>
   <g id="svg_4">
    <g id="svg_5" opacity="0.1">
     <g id="svg_6">
      <path d="m414,192.53c0,-3.57 -0.99,-5.53 -4.56,-5.53l-214.75,0l210.89,-37.65c1.68,-0.3 3.18,-1.49 4.17,-2.89c0.98,-1.4 1.36,-3.26 1.06,-4.94l-11.41,-64.79c-0.62,-3.51 -3.97,-5.89 -7.48,-5.27l-278.32,49.06c-3.51,0.62 -5.85,3.96 -5.23,7.47l10.97,64.73c0.02,0.16 -0.34,0.32 -0.34,0.48l0,64.64c0,1.05 0,2.04 0,2.91l0,192.28c0,3.4 4.34,6.97 7.74,6.97l282.63,0c3.4,0 4.63,-3.57 4.63,-6.97l0,-193.02c0,-0.68 0,-1.41 0,-2.17l0,-65.31z" id="svg_7"/>
     </g>
    </g>
    <g id="svg_8">
     <g id="svg_9">
      <rect fill="#EAEAEA" height="241.2" id="svg_10" width="282.63" x="114.89" y="199.98"/>
     </g>
     <g id="svg_11">
      <path d="m397.52,447.18l-282.63,0c-3.31,0 -6,-2.69 -6,-6l0,-241.2c0,-3.32 2.69,-6 6,-6l282.63,0c3.31,0 6,2.68 6,6l0,241.2c0,3.31 -2.69,6 -6,6zm-276.63,-12l270.63,0l0,-229.2l-270.63,0l0,229.2z" fill="#333333" id="svg_12"/>
     </g>
    </g>
    <g id="svg_13">
     <g id="svg_14">
      <rect fill="#EAEAEA" height="65.31" id="svg_15" width="283.09" x="114.5" y="180.68"/>
     </g>
     <g id="svg_16">
      <path d="m397.59,251.98l-283.09,0c-3.31,0 -6,-2.68 -6,-6l0,-65.3c0,-3.32 2.69,-6 6,-6l283.09,0c3.31,0 6,2.68 6,6l0,65.3c0,3.32 -2.69,6 -6,6zm-277.09,-12l271.09,0l0,-53.3l-271.09,0l0,53.3z" fill="#333333" id="svg_17"/>
     </g>
    </g>
    <g id="svg_18">
     <g id="svg_19">
      <polygon fill="#333333" id="svg_20" points="347.16003,243 403.90054,185.96851 399.22299,181 344.87057,181 283.45251,243     "/>
     </g>
    </g>
    <g id="svg_21">
     <g id="svg_22">
      <polygon fill="#333333" id="svg_23" points="237.25403,243 293.99454,185.96851 289.31702,181 234.96458,181 173.54654,243     "/>
     </g>
    </g>
    <g id="svg_24">
     <g id="svg_25">
      <polygon fill="#333333" id="svg_26" points="127.34805,243 184.08856,185.96851 179.41103,181 115,181 115,243     "/>
     </g>
    </g>
    <g id="svg_27">
     <g id="svg_28">
      <g id="svg_29">
       <rect fill="#EAEAEA" height="65.73" id="svg_30" transform="matrix(-0.98481 0.17365 -0.17365 -0.98481 513.04272 200.79695)" width="282.61" x="106.43" y="89.98"/>
      </g>
      <g id="svg_31">
       <path d="m114.28,185.74c-2.86,0 -5.39,-2.04 -5.9,-4.95l-11.42,-64.73c-0.27,-1.57 0.08,-3.18 1,-4.49s2.3,-2.19 3.87,-2.47l278.32,-49.07c1.57,-0.27 3.18,0.08 4.48,0.99s2.19,2.31 2.47,3.88l11.41,64.73c0.58,3.26 -1.6,6.37 -4.86,6.95l-278.32,49.07c-0.36,0.06 -0.71,0.09 -1.05,0.09zm-4.46,-65.86l9.33,52.91l266.5,-46.99l-9.33,-52.91l-266.5,46.99z" fill="#333333" id="svg_32"/>
      </g>
     </g>
     <g id="svg_33">
      <g id="svg_34">
       <g id="svg_35">
        <polygon fill="#333333" id="svg_36" points="228.32924,156.35205 162.75024,110.29956 166.53191,104.88306 219.91261,95.4706         290.89777,145.31952       "/>
       </g>
      </g>
      <g id="svg_37">
       <g id="svg_38">
        <polygon fill="#333333" id="svg_39" points="334.15384,137.69232 268.57483,91.63983 272.35651,86.22332 325.73721,76.81087         396.72235,126.6598       "/>
       </g>
      </g>
      <g id="svg_40">
       <g id="svg_41">
        <polygon fill="#333333" id="svg_42" points="114.99575,118.26453 180.57474,164.31702 176.79308,169.73352 113.65923,180.86572         102.99409,120.38074       "/>
       </g>
      </g>
     </g>
    </g>
    <g id="svg_43">
     <g id="svg_44">
      <g id="svg_45">
       <path d="m355,300l-200,0c-5.25,0 -9.5,-4.25 -9.5,-9.5s4.25,-9.5 9.5,-9.5l200,0c5.25,0 9.5,4.25 9.5,9.5s-4.25,9.5 -9.5,9.5z" fill="#333333" id="svg_46"/>
      </g>
     </g>
     <g id="svg_47">
      <g id="svg_48">
       <path d="m355,351l-200,0c-5.25,0 -9.5,-4.25 -9.5,-9.5s4.25,-9.5 9.5,-9.5l200,0c5.25,0 9.5,4.25 9.5,9.5s-4.25,9.5 -9.5,9.5z" fill="#333333" id="svg_49"/>
      </g>
     </g>
     <g id="svg_50">
      <g id="svg_51">
       <path d="m256,403l-101,0c-5.25,0 -9.5,-4.25 -9.5,-9.5s4.25,-9.5 9.5,-9.5l101,0c5.25,0 9.5,4.25 9.5,9.5s-4.25,9.5 -9.5,9.5z" fill="#333333" id="svg_52"/>
      </g>
     </g>
    </g>
    <g id="svg_53">
     <g id="svg_54">
      <circle cx="140.75" cy="205.59" fill="#EAEAEA" id="svg_55" r="4.6"/>
     </g>
    </g>
   </g>
   <g id="svg_56">
    <g id="svg_57">
     <path d="m130.74,151c-2.92,0 -5.48,-2.13 -5.92,-5.11l-2.03,-13.45c-0.48,-3.2 1.67,-6.22 4.87,-6.79l195.02,-35.3c3.26,-0.59 6.38,1.57 6.97,4.83c0.59,3.26 -1.57,6.38 -4.83,6.97l-189.29,34.27l1.15,7.69c0.5,3.27 -1.76,6.33 -5.04,6.82c-0.3,0.05 -0.6,0.07 -0.9,0.07z" fill="#FFFFFF" id="svg_58"/>
    </g>
   </g>
   <g id="svg_59">
    <g id="svg_60">
     <circle cx="342.67" cy="92.83" fill="#FFFFFF" id="svg_61" r="5.8"/>
    </g>
   </g>
  </g>
 </g>
</svg>