<svg width="153" height="44" viewBox="0 0 153 44" fill="none" xmlns="http://www.w3.org/2000/svg">
<rect x="0.833008" y="0.5" width="43" height="43" rx="5.5" fill="#1A1A1A"/>
<rect x="0.833008" y="0.5" width="43" height="43" rx="5.5" stroke="#262626"/>
<g clip-path="url(#clip0_305_419)">
<path d="M32.333 22C32.333 16.4771 27.8559 12 22.333 12C16.8102 12 12.333 16.4771 12.333 22C12.333 26.9912 15.9898 31.1283 20.7705 31.8785V24.8906H18.2314V22H20.7705V19.7969C20.7705 17.2906 22.2635 15.9062 24.5477 15.9062C25.6414 15.9062 26.7861 16.1016 26.7861 16.1016V18.5625H25.5252C24.283 18.5625 23.8955 19.3334 23.8955 20.125V22H26.6689L26.2256 24.8906H23.8955V31.8785C28.6762 31.1283 32.333 26.9912 32.333 22Z" fill="white"/>
</g>
<rect x="54.833" y="0.5" width="43" height="43" rx="5.5" fill="#1A1A1A"/>
<rect x="54.833" y="0.5" width="43" height="43" rx="5.5" stroke="#262626"/>
<g clip-path="url(#clip1_305_419)">
<path d="M72.6248 30.1251C80.1701 30.1251 84.2982 23.8724 84.2982 18.4517C84.2982 18.2759 84.2943 18.0962 84.2865 17.9204C85.0896 17.3397 85.7826 16.6203 86.333 15.7962C85.5851 16.129 84.791 16.3463 83.9779 16.4407C84.8341 15.9275 85.4751 15.1213 85.7822 14.1716C84.9768 14.6489 84.096 14.9856 83.1775 15.1673C82.5587 14.5098 81.7405 14.0744 80.8494 13.9285C79.9583 13.7826 79.044 13.9343 78.2478 14.3602C77.4516 14.7861 76.8178 15.4624 76.4445 16.2845C76.0713 17.1067 75.9792 18.029 76.1826 18.9087C74.5518 18.8269 72.9563 18.4032 71.4997 17.6652C70.043 16.9272 68.7578 15.8913 67.7271 14.6247C67.2033 15.5278 67.0431 16.5965 67.2789 17.6135C67.5147 18.6306 68.1289 19.5197 68.9967 20.1001C68.3452 20.0794 67.708 19.904 67.1377 19.5884V19.6392C67.1371 20.5869 67.4648 21.5056 68.0649 22.2391C68.6651 22.9726 69.5008 23.4756 70.4299 23.6626C69.8264 23.8277 69.193 23.8518 68.5787 23.7329C68.8409 24.548 69.351 25.2609 70.0378 25.7721C70.7246 26.2833 71.5539 26.5673 72.41 26.5845C70.9567 27.726 69.1615 28.3452 67.3135 28.3423C66.9857 28.3418 66.6583 28.3217 66.333 28.2821C68.2104 29.4866 70.3943 30.1263 72.6248 30.1251Z" fill="white"/>
</g>
<rect x="108.833" y="0.5" width="43" height="43" rx="5.5" fill="#1A1A1A"/>
<rect x="108.833" y="0.5" width="43" height="43" rx="5.5" stroke="#262626"/>
<g clip-path="url(#clip2_305_419)">
<path d="M138.853 12H121.81C120.993 12 120.333 12.6445 120.333 13.4414V30.5547C120.333 31.3516 120.993 32 121.81 32H138.853C139.669 32 140.333 31.3516 140.333 30.5586V13.4414C140.333 12.6445 139.669 12 138.853 12ZM126.267 29.043H123.298V19.4961H126.267V29.043ZM124.782 18.1953C123.829 18.1953 123.06 17.4258 123.06 16.4766C123.06 15.5273 123.829 14.7578 124.782 14.7578C125.731 14.7578 126.501 15.5273 126.501 16.4766C126.501 17.4219 125.731 18.1953 124.782 18.1953ZM137.376 29.043H134.411V24.4023C134.411 23.2969 134.392 21.8711 132.868 21.8711C131.325 21.8711 131.091 23.0781 131.091 24.3242V29.043H128.13V19.4961H130.974V20.8008H131.013C131.407 20.0508 132.376 19.2578 133.817 19.2578C136.821 19.2578 137.376 21.2344 137.376 23.8047V29.043Z" fill="white"/>
</g>
<defs>
<clipPath id="clip0_305_419">
<rect width="20" height="20" fill="white" transform="translate(12.333 12)"/>
</clipPath>
<clipPath id="clip1_305_419">
<rect width="20" height="20" fill="white" transform="translate(66.333 12)"/>
</clipPath>
<clipPath id="clip2_305_419">
<rect width="20" height="20" fill="white" transform="translate(120.333 12)"/>
</clipPath>
</defs>
</svg>
